<?xml version="1.0" encoding="UTF-8"?>
<svg id="Calque_1" xmlns="http://www.w3.org/2000/svg" xmlns:xlink="http://www.w3.org/1999/xlink" version="1.1" viewBox="0 0 24 24">
  <!-- Generator: Adobe Illustrator 30.1.0, SVG Export Plug-In . SVG Version: 2.1.1 Build 136)  -->
  <defs>
    <style>
      .st0 {
        fill: url(#Dégradé_sans_nom);
      }
    </style>
    <linearGradient id="Dégradé_sans_nom" data-name="Dégradé sans nom" x1="0" y1="2" x2="24" y2="26" gradientTransform="translate(0 26) scale(1 -1)" gradientUnits="userSpaceOnUse">
      <stop offset=".1" stop-color="#ea8af9"/>
      <stop offset=".5" stop-color="#53c7f9"/>
      <stop offset=".9" stop-color="#5cf98d"/>
    </linearGradient>
  </defs>
  <path class="st0" d="M12,24c-2.9,0-4.9,0-6.6-.2-1.7-.2-2.8-.7-3.7-1.5-.8-.8-1.3-1.9-1.5-3.7-.2-1.6-.2-3.7-.2-6.6s0-4.9.2-6.6c.2-1.7.7-2.8,1.5-3.7C2.6.9,3.7.5,5.4.2c1.6-.2,3.7-.2,6.6-.2s4.9,0,6.6.2c1.7.2,2.8.7,3.7,1.5.8.8,1.3,1.9,1.5,3.7.2,1.6.2,3.7.2,6.6s0,4.9-.2,6.6c-.2,1.7-.7,2.8-1.5,3.7-.8.8-1.9,1.3-3.7,1.5-1.6.2-3.7.2-6.6.2ZM12,4.1c-2.6,0-4.7,0-6,.2-.7,0-1.2.2-1.3.4s-.3.6-.4,1.3c-.2,1.4-.2,3.4-.2,6s0,4.7.2,6c0,.7.2,1.2.4,1.3.1.1.6.3,1.3.4,1.4.2,3.4.2,6,.2s4.7,0,6-.2c.7,0,1.2-.2,1.3-.4s.3-.6.4-1.3c.2-1.4.2-3.4.2-6s0-4.7-.2-6c0-.7-.2-1.2-.4-1.3-.1-.1-.6-.3-1.3-.4-1.4-.2-3.4-.2-6-.2Z"/>
</svg>